<svg width="170" height="30" viewBox="0 0 170 30" fill="none" xmlns="http://www.w3.org/2000/svg">
<path d="M22.6814 9.54308C22.6814 11.2663 21.7279 12.2198 20.0047 12.2198C18.2814 12.2198 17.3279 11.2663 17.3279 9.54308C17.3279 7.81982 18.2814 6.86633 20.0047 6.86633C21.7256 6.86633 22.6814 7.81982 22.6814 9.54308ZM9.0907 17.7803C6.65116 17.7803 6.41395 18.0198 6.41395 20.457C6.41395 22.8966 6.65349 23.1338 9.0907 23.1338C11.5302 23.1338 11.7674 22.8942 11.7674 20.457C11.7698 18.0198 11.5302 17.7803 9.0907 17.7803ZM29.093 15.0012C29.0907 18.0501 29.0907 23.1547 25.9209 26.357C22.7651 29.5454 17.6209 29.5454 14.5465 29.5454C11.4977 29.5454 6.39768 29.5454 3.1907 26.3733C2.21785e-07 23.2222 0 18.0756 0 15.0012C0 11.9268 2.21785e-07 6.78029 3.1907 3.6268C6.39768 0.454708 11.4977 0.454712 14.5465 0.454712C17.6209 0.454712 22.7674 0.45471 25.9209 3.64308C29.093 6.85238 29.093 11.9524 29.093 15.0012ZM14.5465 27.2198H14.5395V19.3128C14.5395 15.2477 14.3 15.0082 10.2349 15.0082H2.33023C2.33023 18.1338 2.4 22.3175 4.82791 24.7198C7.26512 27.1314 11.393 27.2175 14.5395 27.2175H14.5465V27.2198ZM26.7651 15.0012C26.7651 11.8524 26.6791 7.72215 24.2674 5.28261C21.8651 2.85238 17.6767 2.78494 14.5488 2.78494C11.4 2.78494 7.26977 2.87099 4.83023 5.28261C3.56744 6.53145 2.94651 8.26168 2.63721 10.0733C6.9907 10.0803 12.6767 10.2477 15.9721 13.5803C19.2814 16.9245 19.4721 22.5384 19.4767 26.9152C21.2884 26.6059 23.0209 25.9826 24.2674 24.7221C26.6791 22.2803 26.7651 18.1501 26.7651 15.0012ZM81.1349 13.978C81.1349 18.6803 80.3791 20.5082 78.3698 20.5082H78.1L79.4465 24.771C84.0907 24.4338 85.4744 21.4687 85.4744 14.0059V9.12913H91.3256V24.7175H95.9837V5.26866H81.1395V13.978H81.1349ZM67.5302 5.26866C64.8767 5.26866 63.7302 6.19192 62.9698 8.6082L57.907 24.7152H62.186L63.4953 20.5942H71.3256L72.6349 24.7152H77.1767L72.0884 8.60122C71.3279 6.18959 70.1837 5.26866 67.5302 5.26866ZM64.6907 16.7919L66.7605 10.1384C66.8465 9.86633 67.0977 9.68029 67.386 9.68029C67.6721 9.68029 67.9233 9.86401 68.0093 10.1338L70.1349 16.7919H64.6907ZM98.1628 5.26866H115.395V9.12913H109.109V24.7175H104.451V9.12913H98.1628V5.26866ZM170 5.26866V9.12913H163.714V24.7175H159.056V9.12913H152.767V5.26866H170ZM141.184 19.75C141.184 20.8059 141.263 20.8849 142.321 20.8849H150.993V24.7175H142.214C138.642 24.7175 136.526 22.6059 136.526 19.0454V5.26866H150.847V9.10122H141.184V12.9617H149.537V16.6477H141.184V19.75ZM50.6605 12.6059H45.393V9.12215H55.3767V5.26168H40.7349V24.7105L50.6558 24.7152C54.4395 24.7175 56.7279 22.4338 56.7279 18.6617C56.7302 14.8873 54.4419 12.6059 50.6605 12.6059ZM50.9512 21.0012H45.393V16.3268H50.9512C52.0093 16.3268 52.0884 16.4059 52.0884 17.4617V19.8663C52.0884 20.9221 52.0093 21.0012 50.9512 21.0012ZM127.502 12.6617H122.235V9.17796H132.219V5.3175H117.577V24.7663L127.498 24.771C131.281 24.7733 133.57 22.4896 133.57 18.7175C133.572 14.9431 131.284 12.6617 127.502 12.6617ZM127.793 21.0547H122.235V16.3803H127.793C128.851 16.3803 128.93 16.4594 128.93 17.5152V19.9198C128.93 20.9756 128.851 21.0547 127.793 21.0547Z" fill="white"/>
</svg>
